<svg xmlns="http://www.w3.org/2000/svg" viewBox="0 0 259.59 86.05"><defs><style>.cls-1{fill:#a8afb2;}.cls-2{fill:#0796d5;}</style></defs><g id="Capa_2" data-name="Capa 2"><g id="Capa_1-2" data-name="Capa 1"><path class="cls-1" d="M257.43,82a2.13,2.13,0,0,1-.12.65,2.81,2.81,0,0,1-2.73,1.89,1.82,1.82,0,0,1-1.93-2c0-2.19,2.54-2.58,4.78-2.54Zm2.16,3.8a15.87,15.87,0,0,1-.19-2.7V78.88c0-2.26-.83-4.61-4.28-4.61a7,7,0,0,0-3.7,1l.46,1.35a5.65,5.65,0,0,1,2.94-.84,2.33,2.33,0,0,1,2.56,2.61v.24c-4.36,0-6.78,1.46-6.78,4.19a3.21,3.21,0,0,0,3.45,3.23,4.21,4.21,0,0,0,3.45-1.67h.07l.16,1.42Zm-10.85-2a5.76,5.76,0,0,1-2.52.56,3.87,3.87,0,0,1-3.91-4.21c0-2.36,1.4-4.27,4-4.27a4.76,4.76,0,0,1,2.38.54l.46-1.58a6.81,6.81,0,0,0-2.84-.58,5.72,5.72,0,0,0-6,6c0,3.45,2.21,5.75,5.61,5.75a7.59,7.59,0,0,0,3.24-.65ZM236.63,70.08a1.25,1.25,0,0,0-1.28,1.28,1.27,1.27,0,1,0,1.28-1.28m1,4.45h-2V85.8h2Zm-9.28-2.7v2.7h-1.75v1.56h1.75v6.15a4.19,4.19,0,0,0,.79,2.93,2.82,2.82,0,0,0,2.21.86,5,5,0,0,0,1.81-.28l-.09-1.53a4.57,4.57,0,0,1-1.19.14c-1.14,0-1.53-.8-1.53-2.19V76.09h2.93V74.53h-2.93V71.29Zm-6.9-2.17L219.42,73h1.47l2.84-3.33ZM222.71,82a2.13,2.13,0,0,1-.12.65,2.8,2.8,0,0,1-2.72,1.89,1.82,1.82,0,0,1-1.94-2c0-2.19,2.54-2.58,4.78-2.54Zm2.16,3.8a15.87,15.87,0,0,1-.19-2.7V78.88c0-2.26-.83-4.61-4.28-4.61a7,7,0,0,0-3.7,1l.46,1.35a5.65,5.65,0,0,1,2.94-.84,2.32,2.32,0,0,1,2.56,2.61v.24c-4.36,0-6.77,1.46-6.77,4.19a3.2,3.2,0,0,0,3.44,3.23,4.21,4.21,0,0,0,3.45-1.67h.07L223,85.8Zm-27.52,0h2V79a3,3,0,0,1,.16-1,2.8,2.8,0,0,1,2.54-2c1.56,0,2.36,1.3,2.36,3.09V85.8h2v-7a3.16,3.16,0,0,1,.16-1A2.65,2.65,0,0,1,209,76c1.66,0,2.45,1.3,2.45,3.47V85.8h2V79.16c0-3.91-2.21-4.89-3.7-4.89a3.89,3.89,0,0,0-2.5.79A4.72,4.72,0,0,0,206,76.53h-.05a3.33,3.33,0,0,0-3.19-2.26,3.89,3.89,0,0,0-3.54,2.07h-.07l-.09-1.81h-1.79c.07.93.09,1.88.09,3Zm-7.71,0h2v-6a5.5,5.5,0,0,1,.09-1,2.88,2.88,0,0,1,2.75-2.63,3.34,3.34,0,0,1,.69.07V74.34a2.42,2.42,0,0,0-.58-.07,3.39,3.39,0,0,0-3.12,2.47h-.09l-.07-2.21h-1.79c.07,1,.09,2.19.09,3.51Zm-8.06-10c2.43,0,3.38,2.42,3.38,4.33,0,2.54-1.47,4.38-3.42,4.38s-3.43-1.86-3.43-4.33c0-2.15,1-4.38,3.47-4.38m0-1.54c-3.12,0-5.59,2.21-5.59,6,0,3.56,2.35,5.79,5.4,5.79,2.73,0,5.61-1.81,5.61-6,0-3.45-2.18-5.8-5.42-5.8m-9,11.53V76.09h2.73V74.53h-2.73v-.61c0-1.72.45-3.26,2.19-3.26a3.08,3.08,0,0,1,1.31.26l.28-1.58a4.65,4.65,0,0,0-1.75-.33,3.92,3.92,0,0,0-2.75,1,5.31,5.31,0,0,0-1.3,3.93v.54H169v1.56h1.58V85.8Zm-15.15,0h2V79a3,3,0,0,1,.14-1,2.91,2.91,0,0,1,2.75-2.1c1.94,0,2.61,1.51,2.61,3.33v6.5H167V79.07c0-3.87-2.42-4.8-4-4.8a4.16,4.16,0,0,0-3.73,2.12h0l-.12-1.86h-1.81c.07.93.09,1.88.09,3Zm-5.73,0h2V70.1h-2ZM136.2,79.07c.16-1.42,1.07-3.33,3.14-3.33,2.31,0,2.87,2,2.85,3.33Zm7.89,1.46a6.5,6.5,0,0,0,.07-1c0-2.07-1-5.31-4.65-5.31-3.29,0-5.29,2.68-5.29,6.08S136.29,86,139.76,86a9,9,0,0,0,3.75-.7l-.35-1.46a7.47,7.47,0,0,1-3.12.58,3.6,3.6,0,0,1-3.86-3.92Zm-14.5.54a3.5,3.5,0,0,1-.09.88,3.09,3.09,0,0,1-3,2.45c-2.21,0-3.33-1.88-3.33-4.17,0-2.49,1.26-4.35,3.38-4.35a3,3,0,0,1,3,2.37,3.65,3.65,0,0,1,.09.86Zm0-11.8V76h-.05a3.77,3.77,0,0,0-3.4-1.72c-2.75,0-5.07,2.31-5,6.06,0,3.42,2.09,5.72,4.82,5.72a4.16,4.16,0,0,0,3.84-2.21h.05l.09,2h1.84c-.07-.77-.09-1.91-.09-2.91V69.27Z"/><path class="cls-1" d="M197.07,62.51h2v-6a5.33,5.33,0,0,1,.1-1,2.87,2.87,0,0,1,2.74-2.63,2.91,2.91,0,0,1,.7.07V51.06a2,2,0,0,0-.58-.07,3.38,3.38,0,0,0-3.12,2.46h-.09l-.07-2.21H197c.07,1,.09,2.19.09,3.52Zm-8.06-10c2.42,0,3.38,2.42,3.38,4.33,0,2.54-1.47,4.38-3.42,4.38s-3.43-1.86-3.43-4.33c0-2.14,1.05-4.38,3.47-4.38m.05-1.53c-3.12,0-5.59,2.21-5.59,6,0,3.56,2.35,5.8,5.4,5.8,2.73,0,5.61-1.82,5.61-6,0-3.44-2.18-5.79-5.42-5.79m-9.2-4.19a1.25,1.25,0,0,0-1.28,1.28,1.27,1.27,0,1,0,1.28-1.28m1,4.44h-2V62.51h2Zm-9.75,11.27h2v-6a5.33,5.33,0,0,1,.1-1A2.87,2.87,0,0,1,176,52.92a2.91,2.91,0,0,1,.7.07V51.06a2,2,0,0,0-.58-.07A3.38,3.38,0,0,0,173,53.45h-.09l-.07-2.21H171c.07,1,.09,2.19.09,3.52Zm-10.5-6.73c.16-1.42,1.07-3.33,3.14-3.33,2.31,0,2.87,2,2.84,3.33Zm7.89,1.47a8.53,8.53,0,0,0,.07-1c0-2.08-1-5.31-4.66-5.31-3.28,0-5.28,2.67-5.28,6.07s2.07,5.68,5.54,5.68a9.27,9.27,0,0,0,3.75-.69l-.35-1.47a7.35,7.35,0,0,1-3.12.58,3.61,3.61,0,0,1-3.87-3.91ZM148.24,56a3.2,3.2,0,0,1,.14-.83,3.27,3.27,0,0,1,3.1-2.55c2.16,0,3.35,1.94,3.35,4.2,0,2.58-1.26,4.35-3.42,4.35a3.16,3.16,0,0,1-3.08-2.4,4.22,4.22,0,0,1-.09-.83Zm-2,11.13h2V61h0a4,4,0,0,0,3.48,1.77c2.65,0,5.12-2,5.12-6.06,0-3.42-2-5.72-4.77-5.72a4.44,4.44,0,0,0-4,2.18h0L148,51.24h-1.84c0,1.07.1,2.24.1,3.68Zm-3.41-15.88h-2v6.92a2.89,2.89,0,0,1-2.89,2.91c-1.87,0-2.52-1.44-2.52-3.59V51.24h-2v6.59c0,4,2.11,4.94,3.88,4.94a4.24,4.24,0,0,0,3.73-2.1h0l.11,1.84h1.82c-.07-.88-.1-1.91-.1-3.07Zm-21.63,10.5a8.1,8.1,0,0,0,4,1c3.7,0,5.49-2.09,5.49-4.51s-1.35-3.59-4-4.61c-2.17-.84-3.12-1.56-3.12-3,0-1.07.81-2.35,3-2.35a6.29,6.29,0,0,1,3,.74l.55-1.65a7.16,7.16,0,0,0-3.47-.77c-3,0-5.07,1.82-5.07,4.26,0,2.21,1.58,3.54,4.14,4.45,2.12.82,3,1.65,3,3.12s-1.21,2.68-3.28,2.68a7.22,7.22,0,0,1-3.63-1Z"/><path class="cls-1" d="M188.94,35.43a2.11,2.11,0,0,1-.11.65A2.81,2.81,0,0,1,186.1,38a1.81,1.81,0,0,1-1.93-2c0-2.19,2.54-2.58,4.77-2.54Zm2.17,3.8a15.92,15.92,0,0,1-.19-2.71V32.31c0-2.26-.84-4.61-4.28-4.61a7.07,7.07,0,0,0-3.71,1l.47,1.35a5.64,5.64,0,0,1,2.93-.84,2.33,2.33,0,0,1,2.57,2.61v.24c-4.36,0-6.78,1.46-6.78,4.18a3.2,3.2,0,0,0,3.44,3.24A4.21,4.21,0,0,0,189,37.81h.07l.17,1.42Zm-13.6,0h2.05V22.7h-2.05ZM167,32.5c.16-1.42,1.07-3.33,3.14-3.33,2.31,0,2.87,2,2.84,3.33ZM174.9,34a8.33,8.33,0,0,0,.07-1c0-2.07-1-5.31-4.66-5.31-3.28,0-5.28,2.68-5.28,6.08s2.07,5.68,5.54,5.68a9.07,9.07,0,0,0,3.75-.7L174,37.3a7.5,7.5,0,0,1-3.12.58A3.62,3.62,0,0,1,167,34Zm-12.46-6h-2v6.91a2.89,2.89,0,0,1-.19,1.05,3,3,0,0,1-2.7,1.86c-1.87,0-2.52-1.44-2.52-3.58V28h-2.05v6.59c0,4,2.12,4.93,3.89,4.93a4.25,4.25,0,0,0,3.73-2.09h0l.12,1.84h1.82c-.07-.89-.1-1.91-.1-3.08Zm-12.18,9.31a5.75,5.75,0,0,1-2.51.56,3.86,3.86,0,0,1-3.91-4.21c0-2.36,1.39-4.27,4-4.27a4.71,4.71,0,0,1,2.37.54l.47-1.58a6.85,6.85,0,0,0-2.84-.58,5.72,5.72,0,0,0-6,6c0,3.45,2.21,5.75,5.61,5.75a7.5,7.5,0,0,0,3.23-.65Zm-17.69,1.42a6.36,6.36,0,0,0,3.16.77c2.68,0,4.22-1.4,4.22-3.38,0-1.67-1-2.65-3-3.4-1.47-.56-2.14-1-2.14-1.91s.67-1.53,1.89-1.53a4.35,4.35,0,0,1,2.3.65l.51-1.49a5.59,5.59,0,0,0-2.77-.7c-2.42,0-3.88,1.49-3.88,3.31,0,1.35.95,2.47,3,3.19,1.52.56,2.1,1.09,2.1,2.07s-.7,1.68-2.19,1.68a5.35,5.35,0,0,1-2.7-.82Zm-2.47-8.5H124v-5h6.45v-1.7H122v15.7h8.83v-1.7H124V31.87h6.1Z"/><path class="cls-1" d="M18.92,44.87c.53-5.26,3.94-13,12.36-13,9.19,0,11.3,8.15,11.3,13Zm68.67-22.5v33.2c-2.58-4.46-7.38-7.89-15-10.5-7.88-2.76-10.38-4.34-10.38-7.49s2.76-5.13,7.62-5.13a30.16,30.16,0,0,1,10,1.93l6.36-10.86.71-1.34a42.62,42.62,0,0,0-17.69-3.66c-7.8,0-14.22,2.2-18.75,5.85-4.41-3.58-10.32-5.78-18-5.78C10.12,18.59,0,36.59,0,52.89,0,73,12.48,85.74,34.3,85.74h1.47l9-14.06h-7.5c-9.33,0-17.65-4.86-18.17-13.14H53l1.56-2.42A45.12,45.12,0,0,0,61.44,59c7.36,2.5,9.33,4.07,9.33,7.49s-2.49,5.24-8.5,5.25H57.36L54.27,77l-5.09,8.72,0,.07H62.23c13,0,21.52-4.43,25.36-11.32V85.81L97.16,79l10.4,6.83V42.28c0-10.37-20-19.91-20-19.91"/><polygon class="cls-2" points="87.58 0 87.58 7.61 96.6 10.78 87.58 13.95 87.58 21.56 107.43 14.58 107.56 14.63 107.56 14.54 107.56 7.02 107.56 6.92 107.43 6.97 87.58 0"/></g></g></svg>